<svg xmlns="http://www.w3.org/2000/svg" viewBox="-8 -8 80 80"><defs><linearGradient id="be-r" x1="0" y1="0" x2="1" y2="1"><stop offset="0.00" stop-color="#ffb8b0"/><stop offset="0.50" stop-color="#ef4444"/><stop offset="1.00" stop-color="#86101f"/></linearGradient><linearGradient id="be-w" x1="0" y1="0" x2="0" y2="1"><stop offset="0.00" stop-color="#ffffff"/><stop offset="1.00" stop-color="#e8e2d4"/></linearGradient><linearGradient id="be-g" x1="0" y1="0" x2="0" y2="1"><stop offset="0.00" stop-color="#fff0b3"/><stop offset="0.50" stop-color="#f5b942"/><stop offset="1.00" stop-color="#9a5c0a"/></linearGradient><linearGradient id="be-sh" x1="0" y1="0" x2="1" y2="0"><stop offset="0.00" stop-color="#d39a62"/><stop offset="0.50" stop-color="#8a5530"/><stop offset="1.00" stop-color="#4a2a14"/></linearGradient></defs><g class="ground"><ellipse cx="30" cy="60" rx="20" ry="3.2" fill="#000" opacity=".35"/></g><g id="body"><circle cx="28" cy="34" r="25" fill="url(#be-r)" stroke="#14101f" stroke-width="2.4" stroke-linejoin="round"/><circle cx="28" cy="34" r="18.5" fill="url(#be-w)"/><circle cx="28" cy="34" r="12.5" fill="url(#be-r)"/><circle cx="28" cy="34" r="6.5" fill="url(#be-w)"/><circle cx="28" cy="34" r="3" fill="url(#be-g)"/><path d="M29 33 L54 8" stroke="#14101f" stroke-width="5.4" stroke-linecap="round"/><path d="M29 33 L54 8" stroke="url(#be-sh)" stroke-width="2.8" stroke-linecap="round"/><path d="M50 6 L57 0.5 L58 6 L63.5 7 L58 14 Z" fill="#ef4444" stroke="#14101f" stroke-width="2.4" stroke-linejoin="round"/><path d="M10 28 C11.5 21 16.5 15.5 23 13.5" stroke="#fff" stroke-opacity="0.55" stroke-width="2.6" fill="none" stroke-linecap="round"/></g></svg>
