<svg xmlns="http://www.w3.org/2000/svg" viewBox="-8 -8 80 80"><defs><linearGradient id="ck-t" x1="0" y1="0" x2="1" y2="1"><stop offset="0.00" stop-color="#6ee798"/><stop offset="0.50" stop-color="#34d36b"/><stop offset="1.00" stop-color="#1a9a4a"/></linearGradient></defs><g id="body"><polygon points="4,32 32,4 32,17 17,32" fill="#c9f7d8"/><polygon points="32,4 60,32 47,32 32,17" fill="#6ee798"/><polygon points="60,32 32,60 32,47 47,32" fill="#0d6430"/><polygon points="32,60 4,32 17,32 32,47" fill="#1a9a4a"/><polygon points="32,17 47,32 32,47 17,32" fill="url(#ck-t)"/><polygon points="32,4 60,32 32,60 4,32" fill="none" stroke="#14101f" stroke-width="2.4" stroke-linejoin="round"/><path d="M11 31 L31 11" stroke="#fff" stroke-opacity="0.7" stroke-width="2.4" fill="none" stroke-linecap="round"/><path d="M21.5 32.5 L29 40 L43 24.5" stroke="#0b0a14" stroke-width="9.4" fill="none" stroke-linecap="round" stroke-linejoin="round"/><path d="M21.5 32.5 L29 40 L43 24.5" stroke="#fff" stroke-width="6" fill="none" stroke-linecap="round" stroke-linejoin="round"/></g></svg>
