<svg xmlns="http://www.w3.org/2000/svg" viewBox="-8 -8 80 80"><defs><linearGradient id="cx-t" x1="0" y1="0" x2="1" y2="1"><stop offset="0.00" stop-color="#ff8077"/><stop offset="0.50" stop-color="#ef4444"/><stop offset="1.00" stop-color="#b91c2c"/></linearGradient></defs><g id="body"><polygon points="4,32 32,4 32,17 17,32" fill="#ffd0cb"/><polygon points="32,4 60,32 47,32 32,17" fill="#ff8077"/><polygon points="60,32 32,60 32,47 47,32" fill="#7a0e1c"/><polygon points="32,60 4,32 17,32 32,47" fill="#b91c2c"/><polygon points="32,17 47,32 32,47 17,32" fill="url(#cx-t)"/><polygon points="32,4 60,32 32,60 4,32" fill="none" stroke="#14101f" stroke-width="2.4" stroke-linejoin="round"/><path d="M11 31 L31 11" stroke="#fff" stroke-opacity="0.7" stroke-width="2.4" fill="none" stroke-linecap="round"/><path d="M24 24 L40 40 M40 24 L24 40" stroke="#0b0a14" stroke-width="9.4" fill="none" stroke-linecap="round" stroke-linejoin="round"/><path d="M24 24 L40 40 M40 24 L24 40" stroke="#fff" stroke-width="6" fill="none" stroke-linecap="round" stroke-linejoin="round"/></g></svg>
