<svg xmlns="http://www.w3.org/2000/svg" viewBox="-8 -8 80 80"><defs><linearGradient id="gv-s" x1="0" y1="0" x2="0" y2="1"><stop offset="0.00" stop-color="#ffe2c6"/><stop offset="0.50" stop-color="#e8ad7c"/><stop offset="1.00" stop-color="#a8683c"/></linearGradient><linearGradient id="gv-c" x1="0" y1="0" x2="0" y2="1"><stop offset="0.00" stop-color="#d3e3ff"/><stop offset="0.50" stop-color="#4f8cff"/><stop offset="1.00" stop-color="#173687"/></linearGradient><linearGradient id="gv-gem" x1="0" y1="0" x2="1" y2="1"><stop offset="0.00" stop-color="#fff3c0"/><stop offset="0.50" stop-color="#f6c453"/><stop offset="1.00" stop-color="#b0700c"/></linearGradient><radialGradient id="gv-g" cx="0.5" cy="0.5" r="0.5"><stop offset="0" stop-color="#f6c453" stop-opacity="0.7"/><stop offset="1" stop-color="#f6c453" stop-opacity="0"/></radialGradient></defs><g class="aura"><circle cx="32" cy="20" r="17" fill="url(#gv-g)"/></g><g id="body"><path d="M32 6 L41 19 L32 32 L23 19 Z" fill="url(#gv-gem)" stroke="#5a3606" stroke-width="2" stroke-linejoin="round"/><path d="M32 6 L23 19 L32 19 Z" fill="#fff" opacity=".5"/><path d="M11 44 C17 41.5 22 40.5 27 41.5 L39 43 C43.5 43.5 44 49 39.5 49.5 L30 49.8 L42 50.5 C47 50.5 51.5 46 55.5 42.5 C59 39.6 62 44 59 47.5 C53 54.5 46.5 58.5 38 58.5 L15 58.5 L11 57 Z" fill="url(#gv-s)" stroke="#14101f" stroke-width="2.4" stroke-linejoin="round"/><path d="M30 49.8 L38 50.2" stroke="#8a5530" stroke-width="1.4" stroke-linecap="round"/><rect x="3" y="42" width="10" height="18" rx="2.5" fill="url(#gv-c)" stroke="#14101f" stroke-width="2.4" stroke-linejoin="round"/><path d="M17 44.5 C21 43.4 25 43.3 28 43.9" stroke="#fff" stroke-opacity="0.6" stroke-width="2" fill="none" stroke-linecap="round"/></g><g class="fx"><path d="M45 5 Q46.12 7.88 49 9 Q46.12 10.120000000000001 45 13 Q43.88 10.120000000000001 41 9 Q43.88 7.88 45 5 Z" fill="#fff"/><path d="M19 26.2 Q19.784 28.216 21.8 29 Q19.784 29.784 19 31.8 Q18.216 29.784 16.2 29 Q18.216 28.216 19 26.2 Z" fill="#fff"/></g></svg>
