<svg xmlns="http://www.w3.org/2000/svg" viewBox="-8 -8 80 80"><defs><linearGradient id="hg-w" x1="0" y1="0" x2="0" y2="1"><stop offset="0.00" stop-color="#d39a62"/><stop offset="0.50" stop-color="#8a5530"/><stop offset="1.00" stop-color="#4a2a14"/></linearGradient><linearGradient id="hg-s" x1="0" y1="0" x2="0" y2="1"><stop offset="0.00" stop-color="#ffe9a3"/><stop offset="0.50" stop-color="#f5b942"/><stop offset="1.00" stop-color="#b97a12"/></linearGradient><linearGradient id="hg-gl" x1="0" y1="0" x2="1" y2="0"><stop offset="0.00" stop-color="#eaf6ff"/><stop offset="1.00" stop-color="#a9c8e8"/></linearGradient></defs><g class="ground"><ellipse cx="32" cy="60" rx="20" ry="3.2" fill="#000" opacity=".35"/></g><g id="body"><rect x="12.5" y="9" width="4.5" height="46" rx="2" fill="url(#hg-w)" stroke="#14101f" stroke-width="2.4" stroke-linejoin="round"/><rect x="47" y="9" width="4.5" height="46" rx="2" fill="url(#hg-w)" stroke="#14101f" stroke-width="2.4" stroke-linejoin="round"/><path d="M19 11 C19 24 29 28 29 32 C29 36 19 40 19 53 L45 53 C45 40 35 36 35 32 C35 28 45 24 45 11 Z" fill="url(#hg-gl)" fill-opacity=".28" stroke="#14101f" stroke-width="2.2" stroke-linejoin="round"/><path d="M22.5 18 L41.5 18 C40 24 34.5 27.5 32 31 C29.5 27.5 24 24 22.5 18 Z" fill="url(#hg-s)"/><path d="M32 31 L32 45" stroke="#f5b942" stroke-width="1.6"/><path d="M20.5 52 C21.5 45 27 42 32 42 C37 42 42.5 45 43.5 52 Z" fill="url(#hg-s)"/><path d="M23 14.5 C23.5 21 27 25 29.5 27.5" stroke="#fff" stroke-opacity="0.8" stroke-width="2" fill="none" stroke-linecap="round"/><rect x="8" y="4" width="48" height="7" rx="2.5" fill="url(#hg-w)" stroke="#14101f" stroke-width="2.4" stroke-linejoin="round"/><rect x="8" y="53" width="48" height="7" rx="2.5" fill="url(#hg-w)" stroke="#14101f" stroke-width="2.4" stroke-linejoin="round"/></g></svg>
