<svg xmlns="http://www.w3.org/2000/svg" viewBox="-8 -8 80 80"><defs><linearGradient id="ab-s" x1="0" y1="0" x2="1" y2="0"><stop offset="0.00" stop-color="#ffffff"/><stop offset="0.50" stop-color="#e5e9f0"/><stop offset="1.00" stop-color="#a4adbf"/></linearGradient><linearGradient id="ab-r" x1="0" y1="0" x2="0" y2="1"><stop offset="0.00" stop-color="#ff9b7a"/><stop offset="0.50" stop-color="#c2261b"/><stop offset="1.00" stop-color="#6b0d0a"/></linearGradient><linearGradient id="ab-g" x1="0" y1="0" x2="0" y2="1"><stop offset="0.00" stop-color="#fff0b3"/><stop offset="0.50" stop-color="#f5b942"/><stop offset="1.00" stop-color="#9a5c0a"/></linearGradient><linearGradient id="ab-w" x1="0" y1="0" x2="1" y2="0"><stop offset="0.00" stop-color="#ffffff"/><stop offset="1.00" stop-color="#cfd6e2"/></linearGradient><radialGradient id="ab-p" cx="0.38" cy="0.35" r="0.7"><stop offset="0" stop-color="#ffffff"/><stop offset="0.6" stop-color="#fbf3d5"/><stop offset="1" stop-color="#c9b680"/></radialGradient><radialGradient id="ab-a" cx="0.5" cy="0.5" r="0.5"><stop offset="0" stop-color="#fde68a" stop-opacity="0.6"/><stop offset="1" stop-color="#fde68a" stop-opacity="0"/></radialGradient></defs><g class="ground"><ellipse cx="30" cy="64" rx="16" ry="3.2" fill="#000" opacity=".35"/></g><g class="aura"><circle cx="32" cy="30" r="34" fill="url(#ab-a)"/></g><g id="body"><g transform="rotate(45 32 32)"><path d="M26 38 L26 35.5 A5.5 5.5 0 0 0 26 24.5 L26 15 L21.5 10.5 L21.5 1 L40 -10 L39.5 38 Z" fill="url(#ab-s)" stroke="#14101f" stroke-width="2.4" stroke-linejoin="round"/><path d="M29.5 35 L29.5 16 L25.5 11.5 L25.5 3 L36.5 -3.5 L36.2 35" stroke="#8a94ab" stroke-width="1.1" fill="none" stroke-linejoin="round"/><path d="M32.5 30 l1.6 -1.6 l0 3" stroke="#4b5568" stroke-width="1.2" fill="none" stroke-linecap="round"/><path d="M32.5 24 l2 0 l-1 -2" stroke="#4b5568" stroke-width="1.2" fill="none" stroke-linecap="round"/><path d="M33.3 18 l0 -2.6 l1.5 1" stroke="#4b5568" stroke-width="1.2" fill="none" stroke-linecap="round"/><path d="M32.5 11 l1.8 1 l0 -2.2" stroke="#4b5568" stroke-width="1.2" fill="none" stroke-linecap="round"/><path d="M31.8 4.5 l2 -1 l-0.6 2.2" stroke="#4b5568" stroke-width="1.2" fill="none" stroke-linecap="round"/><circle cx="26" cy="30" r="5" fill="url(#ab-p)" stroke="#14101f" stroke-width="2.4" stroke-linejoin="round"/><path d="M17 38 L47 38 L47 42.5 L17 42.5 Z" fill="url(#ab-r)" stroke="#14101f" stroke-width="2.4" stroke-linejoin="round"/><path d="M17 42.5 C12.5 42.5 11.5 38.5 12 33 L15.5 33 C15.5 36 15.5 38 17 38 Z" fill="url(#ab-r)" stroke="#14101f" stroke-width="2.4" stroke-linejoin="round"/><path d="M47 42.5 C51.5 42.5 52.5 38.5 52 33 L48.5 33 C48.5 36 48.5 38 47 38 Z" fill="url(#ab-r)" stroke="#14101f" stroke-width="2.4" stroke-linejoin="round"/><path d="M12.6 33.6 L15 33.6 M49 33.6 L51.4 33.6 M18 39.2 L46 39.2" stroke="#f5b942" stroke-width="1.4" stroke-linecap="round"/><rect x="29.5" y="42.5" width="5" height="17" fill="url(#ab-w)" stroke="#14101f" stroke-width="2.4" stroke-linejoin="round"/><rect x="29.5" y="46" width="5" height="2.4" fill="url(#ab-r)" stroke="#14101f" stroke-width="1"/><rect x="29.5" y="51" width="5" height="2.4" fill="url(#ab-r)" stroke="#14101f" stroke-width="1"/><rect x="29.5" y="56" width="5" height="2.4" fill="url(#ab-r)" stroke="#14101f" stroke-width="1"/><circle cx="32" cy="63.5" r="4.4" fill="url(#ab-g)" stroke="#14101f" stroke-width="2.4" stroke-linejoin="round"/><path d="M30.5 61.5 C31 60.6 31.8 60.2 32.6 60.1" stroke="#fff" stroke-opacity="0.9" stroke-width="1.4" fill="none" stroke-linecap="round"/></g></g><g class="fx"><path d="M54 -4 Q55.68 0.31999999999999984 60 2 Q55.68 3.68 54 8 Q52.32 3.68 48 2 Q52.32 0.31999999999999984 54 -4 Z" fill="#fff"/><path d="M12 16.6 Q12.952 19.048 15.4 20 Q12.952 20.952 12 23.4 Q11.048 20.952 8.6 20 Q11.048 19.048 12 16.6 Z" fill="#fff6d6"/><path d="M60 31.2 Q60.784 33.216 62.8 34 Q60.784 34.784 60 36.8 Q59.216 34.784 57.2 34 Q59.216 33.216 60 31.2 Z" fill="#fff6d6"/></g></svg>
