<svg xmlns="http://www.w3.org/2000/svg" viewBox="-8 -8 80 80"><defs><linearGradient id="sm-b" x1="0" y1="0" x2="1" y2="1"><stop offset="0.00" stop-color="#e0f2fe"/><stop offset="0.33" stop-color="#60a5fa"/><stop offset="0.67" stop-color="#1e3a8a"/><stop offset="1.00" stop-color="#0b1736"/></linearGradient><linearGradient id="sm-h" x1="0" y1="0" x2="1" y2="0"><stop offset="0.00" stop-color="#4a3a3a"/><stop offset="1.00" stop-color="#1a1214"/></linearGradient><linearGradient id="sm-i" x1="0" y1="0" x2="0" y2="1"><stop offset="0.00" stop-color="#9aa3b8"/><stop offset="0.50" stop-color="#565d72"/><stop offset="1.00" stop-color="#262a38"/></linearGradient><linearGradient id="sm-g" x1="0" y1="0" x2="0" y2="1"><stop offset="0.00" stop-color="#d6b98a"/><stop offset="1.00" stop-color="#8a6a3a"/></linearGradient><radialGradient id="sm-o" cx="0.4" cy="0.35" r="0.7"><stop offset="0" stop-color="#ecfeff"/><stop offset="0.5" stop-color="#22d3ee"/><stop offset="1" stop-color="#0e7490"/></radialGradient><radialGradient id="sm-a" cx="0.5" cy="0.5" r="0.5"><stop offset="0" stop-color="#38bdf8" stop-opacity="0.5"/><stop offset="1" stop-color="#38bdf8" stop-opacity="0"/></radialGradient></defs><g class="ground"><ellipse cx="24" cy="64" rx="15" ry="3.2" fill="#000" opacity=".35"/></g><g class="aura"><circle cx="36" cy="26" r="34" fill="url(#sm-a)"/></g><g id="body"><g transform="rotate(45 32 32)"><rect x="29.6" y="0" width="4.8" height="66" rx="2" fill="url(#sm-h)" stroke="#14101f" stroke-width="2.4" stroke-linejoin="round"/><rect x="28.2" y="36" width="7.6" height="3.4" rx="1" fill="url(#sm-g)" stroke="#14101f" stroke-width="1.4"/><rect x="28.2" y="48" width="7.6" height="3.4" rx="1" fill="url(#sm-g)" stroke="#14101f" stroke-width="1.4"/><rect x="28.2" y="60" width="7.6" height="3.4" rx="1" fill="url(#sm-g)" stroke="#14101f" stroke-width="1.4"/><path d="M34 3 C42 1 50 -4 56 -10 C65 2 67 22 58 38 C52 31 44 27 34 25 Z" fill="url(#sm-b)" stroke="#14101f" stroke-width="2.4" stroke-linejoin="round"/><path d="M30 5 C24 3 18 -1 13 -6 C8 4 8 17 13 27 C17 23 23 20.5 30 20 Z" fill="url(#sm-b)" stroke="#14101f" stroke-width="2.4" stroke-linejoin="round"/><path d="M56 -6 C62 4 63 20 57 33" stroke="#e0f2fe" stroke-width="1.6" fill="none" stroke-linecap="round" opacity=".8"/><path d="M41 6 C47 8 51 14 52 22" stroke="#0e7490" stroke-width="3" fill="none" stroke-linecap="round" stroke-linejoin="round"/><path d="M41 6 C47 8 51 14 52 22" stroke="#a5f3fc" stroke-width="1.4" fill="none" stroke-linecap="round" stroke-linejoin="round"/><path d="M44 12 L47 10 M46 18 L49.5 17.5" stroke="#0e7490" stroke-width="3" fill="none" stroke-linecap="round" stroke-linejoin="round"/><path d="M44 12 L47 10 M46 18 L49.5 17.5" stroke="#a5f3fc" stroke-width="1.4" fill="none" stroke-linecap="round" stroke-linejoin="round"/><path d="M22 6 C18 9 16 14 16 19" stroke="#0e7490" stroke-width="3" fill="none" stroke-linecap="round" stroke-linejoin="round"/><path d="M22 6 C18 9 16 14 16 19" stroke="#a5f3fc" stroke-width="1.4" fill="none" stroke-linecap="round" stroke-linejoin="round"/><path d="M20 12 L17.5 10.5" stroke="#0e7490" stroke-width="3" fill="none" stroke-linecap="round" stroke-linejoin="round"/><path d="M20 12 L17.5 10.5" stroke="#a5f3fc" stroke-width="1.4" fill="none" stroke-linecap="round" stroke-linejoin="round"/><path d="M32 -12 L35.5 1 L28.5 1 Z" fill="url(#sm-b)" stroke="#14101f" stroke-width="2.4" stroke-linejoin="round"/><rect x="26.5" y="1" width="11" height="21" rx="2.5" fill="url(#sm-i)" stroke="#14101f" stroke-width="2.4" stroke-linejoin="round"/><circle cx="32" cy="11.5" r="5.5" fill="url(#sm-a)"/><path d="M32 7.5 L35 11.5 L32 15.5 L29 11.5 Z" fill="url(#sm-o)" stroke="#14101f" stroke-width="1.3" stroke-linejoin="round"/><circle cx="32" cy="69" r="4" fill="url(#sm-o)" stroke="#14101f" stroke-width="2.4" stroke-linejoin="round"/></g></g><g class="fx"><path d="M62 4 q3 -4 0 -8 q-3 -4 0 -8" stroke="#a5f3fc" stroke-width="1.6" fill="none" stroke-linecap="round" opacity=".85"/><path d="M12 12 q3 -4 0 -8 q-3 -4 0 -8" stroke="#a5f3fc" stroke-width="1.6" fill="none" stroke-linecap="round" opacity=".85"/></g></svg>
