<svg xmlns="http://www.w3.org/2000/svg" viewBox="-8 -8 80 80"><defs><linearGradient id="su-h" x1="0" y1="0" x2="1" y2="1"><stop offset="0.00" stop-color="#4a3b3b"/><stop offset="0.50" stop-color="#1f1616"/><stop offset="1.00" stop-color="#0b0707"/></linearGradient><linearGradient id="su-m" x1="0" y1="0" x2="1" y2="0"><stop offset="0.00" stop-color="#fff1a8"/><stop offset="0.50" stop-color="#ff9a1f"/><stop offset="1.00" stop-color="#d1330b"/></linearGradient><linearGradient id="su-f" x1="0" y1="1" x2="0" y2="0"><stop offset="0.00" stop-color="#fff4b0"/><stop offset="0.50" stop-color="#ffb020"/><stop offset="1.00" stop-color="#ff4d0a"/></linearGradient><linearGradient id="su-sh" x1="0" y1="0" x2="1" y2="0"><stop offset="0.00" stop-color="#5a4a42"/><stop offset="1.00" stop-color="#221a17"/></linearGradient><linearGradient id="su-g" x1="0" y1="0" x2="0" y2="1"><stop offset="0.00" stop-color="#fff0b3"/><stop offset="0.50" stop-color="#f5b942"/><stop offset="1.00" stop-color="#9a5c0a"/></linearGradient><radialGradient id="su-a" cx="0.5" cy="0.5" r="0.5"><stop offset="0" stop-color="#ff7a1a" stop-opacity="0.6"/><stop offset="1" stop-color="#ff7a1a" stop-opacity="0"/></radialGradient></defs><g class="ground"><ellipse cx="26" cy="64" rx="16" ry="3.2" fill="#000" opacity=".35"/></g><g class="aura"><circle cx="34" cy="28" r="34" fill="url(#su-a)"/></g><g id="body"><g transform="rotate(45 32 32)"><rect x="29" y="14" width="6" height="56" rx="2" fill="url(#su-sh)" stroke="#14101f" stroke-width="2.4" stroke-linejoin="round"/><rect x="27.5" y="30" width="9" height="4" rx="1" fill="url(#su-g)" stroke="#14101f" stroke-width="1.6"/><rect x="27.5" y="50" width="9" height="4" rx="1" fill="url(#su-g)" stroke="#14101f" stroke-width="1.6"/><rect x="27.5" y="64" width="9" height="4" rx="1" fill="url(#su-g)" stroke="#14101f" stroke-width="1.6"/><path d="M24 1 Q32 -5 40 1 L36 4 L28 4 Z" fill="url(#su-f)" stroke="#14101f" stroke-width="2.4" stroke-linejoin="round"/><path d="M13 4 L51 4 L54 10 L51 17 L13 17 L10 10 Z" fill="url(#su-h)" stroke="#14101f" stroke-width="2.4" stroke-linejoin="round"/><path d="M16 7 L22 10 L19 14 M29 6 L27 11 L31 15 M40 7 L37 11 L42 14 M47 6 L49 11" stroke="url(#su-m)" stroke-width="2" fill="none" stroke-linecap="round" stroke-linejoin="round"/><path d="M10 10 L4 6 L5 14 Z M54 10 L60 6 L59 14 Z" fill="url(#su-h)" stroke="#14101f" stroke-width="1.8" stroke-linejoin="round"/><path d="M27 17 L37 17 L35 21 L29 21 Z" fill="url(#su-g)" stroke="#14101f" stroke-width="2.4" stroke-linejoin="round"/></g></g><g class="fx"><path d="M44 2 C40 -6 48 -8 46 -14 C54 -8 56 -2 52 4 C51 0 48 -1 48 3 Z" fill="url(#su-f)" stroke="#14101f" stroke-width="1.8" stroke-linejoin="round"/><path d="M58 10 C56 4 62 2 61 -2 C67 4 67 10 63 14 Z" fill="url(#su-f)" stroke="#14101f" stroke-width="1.6" stroke-linejoin="round"/><circle cx="38" cy="-6" r="1.4" fill="#ffd27a"/><circle cx="64" cy="22" r="1.2" fill="#ffd27a"/><circle cx="52" cy="-12" r="1" fill="#ffd27a"/></g></svg>
