<svg xmlns="http://www.w3.org/2000/svg" viewBox="-8 -8 80 80"><defs><radialGradient id="lu-glow" cx="0.5" cy="0.5" r="0.5"><stop offset="0" stop-color="#f5b942" stop-opacity="0.6"/><stop offset="1" stop-color="#f5b942" stop-opacity="0"/></radialGradient></defs><g class="ground"><ellipse cx="32" cy="59" rx="17" ry="3.2" fill="#000" opacity=".35"/></g><g class="aura"><circle cx="32" cy="32" r="30" fill="url(#lu-glow)"/></g><g id="body"><polygon points="32,4 13,19 24,23" fill="#ffe9a3"/><polygon points="32,4 24,23 40,23" fill="#fffbe8"/><polygon points="32,4 40,23 51,19" fill="#f7c95a"/><polygon points="13,19 24,23 18,46" fill="#f7c95a"/><polygon points="24,23 40,23 32,45" fill="#ffe9a3"/><polygon points="40,23 51,19 46,46" fill="#b97a12"/><polygon points="24,23 32,45 32,60 18,46" fill="#e0a12c"/><polygon points="40,23 46,46 32,60 32,45" fill="#7d4f06"/><polygon points="32,4 51,19 46,46 32,60 18,46 13,19" fill="none" stroke="#14101f" stroke-width="2.4" stroke-linejoin="round"/></g><g class="fx"><circle cx="47" cy="13" r="10" fill="url(#lu-glow)"/><path d="M47 3.5 Q49.66 10.34 56.5 13 Q49.66 15.66 47 22.5 Q44.34 15.66 37.5 13 Q44.34 10.34 47 3.5 Z" fill="#fffdf2"/><path d="M15 46 Q16.12 48.88 19 50 Q16.12 51.12 15 54 Q13.879999999999999 51.12 11 50 Q13.879999999999999 48.88 15 46 Z" fill="#fff3c4"/></g></svg>
