<svg xmlns="http://www.w3.org/2000/svg" viewBox="-8 -8 80 80"><defs><linearGradient id="pp-r" x1="0" y1="0" x2="1" y2="0"><stop offset="0.00" stop-color="#ffb8b0"/><stop offset="0.50" stop-color="#ef4444"/><stop offset="1.00" stop-color="#86101f"/></linearGradient><linearGradient id="pp-s" x1="0" y1="0" x2="1" y2="0"><stop offset="0.00" stop-color="#ffffff"/><stop offset="0.50" stop-color="#c3cbdc"/><stop offset="1.00" stop-color="#6b7690"/></linearGradient></defs><g class="ground"><ellipse cx="23" cy="59" rx="10" ry="3.2" fill="#000" opacity=".35"/></g><g id="body"><g transform="rotate(28 32 32)"><path d="M31 37 L33 37 L32 62 Z" fill="url(#pp-s)" stroke="#14101f" stroke-width="1.4" stroke-linejoin="round"/><path d="M21 5 L43 5 Q45.5 5 44 7.5 L40 13 L40 25 C46.5 27.5 50 32 50 37 L14 37 C14 32 17.5 27.5 24 25 L24 13 L20 7.5 Q18.5 5 21 5 Z" fill="url(#pp-r)" stroke="#14101f" stroke-width="2.4" stroke-linejoin="round"/><path d="M27.5 13 L27.5 24" stroke="#fff" stroke-opacity="0.6" stroke-width="2.4" fill="none" stroke-linecap="round"/><path d="M19 33 C20 30.5 22 29 24.5 28" stroke="#fff" stroke-opacity="0.5" stroke-width="2" fill="none" stroke-linecap="round"/></g></g></svg>
